name p7_grf_mean_speed_1.6
datacolumns 13
datarows 22
range 0.0000000000 0.2100000000
endheader
time	grf_x_l_mean	grf_x_l_var	grf_y_l_mean	grf_y_l_var	grf_z_l_mean	grf_z_l_var	grf_x_r_mean	grf_x_r_var	grf_y_r_mean	grf_y_r_var	grf_z_r_mean	grf_z_r_var
0.0000000000	116.0592860272	1.0000000000	563.8595549194	1.0000000000	0.0000000000	0.0000000000	10.7893354272	1.0000000000	11.4222285312	1.0000000000	0.0000000000	0.0000000000
0.0100000000	120.6699364236	1.0000000000	539.1827604528	1.0000000000	0.0000000000	0.0000000000	14.2751924859	1.0000000000	52.9342635791	1.0000000000	0.0000000000	0.0000000000
0.0200000000	123.1574541427	1.0000000000	502.9628290861	1.0000000000	0.0000000000	0.0000000000	13.4724975567	1.0000000000	121.7274391427	1.0000000000	0.0000000000	0.0000000000
0.0300000000	122.3258040533	1.0000000000	455.1912813521	1.0000000000	0.0000000000	0.0000000000	2.1318975042	1.0000000000	214.8468326019	1.0000000000	0.0000000000	0.0000000000
0.0400000000	116.3725019322	1.0000000000	396.9149880773	1.0000000000	0.0000000000	0.0000000000	-23.4744489537	1.0000000000	318.4316883253	1.0000000000	0.0000000000	0.0000000000
0.0500000000	104.8745311414	1.0000000000	330.7732497183	1.0000000000	0.0000000000	0.0000000000	-55.9227918749	1.0000000000	413.9788042833	1.0000000000	0.0000000000	0.0000000000
0.0600000000	89.5519783161	1.0000000000	261.4165570975	1.0000000000	0.0000000000	0.0000000000	-82.7863193793	1.0000000000	485.4347808379	1.0000000000	0.0000000000	0.0000000000
0.0700000000	71.7009951206	1.0000000000	193.9329443280	1.0000000000	0.0000000000	0.0000000000	-99.9719092379	1.0000000000	526.3684439600	1.0000000000	0.0000000000	0.0000000000
0.0800000000	52.4597420729	1.0000000000	133.0867428242	1.0000000000	0.0000000000	0.0000000000	-109.4986568453	1.0000000000	543.6437291024	1.0000000000	0.0000000000	0.0000000000
0.0900000000	35.2562809498	1.0000000000	83.1242208538	1.0000000000	0.0000000000	0.0000000000	-113.5847239817	1.0000000000	550.3075207965	1.0000000000	0.0000000000	0.0000000000
0.1000000000	21.2446305382	1.0000000000	46.0947196533	1.0000000000	0.0000000000	0.0000000000	-115.3043227696	1.0000000000	556.2209077646	1.0000000000	0.0000000000	0.0000000000
0.1100000000	9.8608387828	1.0000000000	21.0245863231	1.0000000000	0.0000000000	0.0000000000	-116.7601298236	1.0000000000	564.2577756348	1.0000000000	0.0000000000	0.0000000000
0.1200000000	2.6800282876	1.0000000000	5.7003215237	1.0000000000	0.0000000000	0.0000000000	-116.7327127742	1.0000000000	573.2604433413	1.0000000000	0.0000000000	0.0000000000
0.1300000000	0.0000000000	1.0000000000	0.0000000000	1.0000000000	0.0000000000	0.0000000000	-113.5240155061	1.0000000000	582.1277651022	1.0000000000	0.0000000000	0.0000000000
0.1400000000	0.0000000000	1.0000000000	0.0000000000	1.0000000000	0.0000000000	0.0000000000	-108.2068515631	1.0000000000	589.0772157604	1.0000000000	0.0000000000	0.0000000000
0.1500000000	0.0000000000	1.0000000000	0.0000000000	1.0000000000	0.0000000000	0.0000000000	-100.2957338218	1.0000000000	591.1561887452	1.0000000000	0.0000000000	0.0000000000
0.1600000000	0.0000000000	1.0000000000	0.0000000000	1.0000000000	0.0000000000	0.0000000000	-89.5676897739	1.0000000000	585.9966938514	1.0000000000	0.0000000000	0.0000000000
0.1700000000	0.0000000000	1.0000000000	0.0000000000	1.0000000000	0.0000000000	0.0000000000	-78.0438619151	1.0000000000	572.7623113823	1.0000000000	0.0000000000	0.0000000000
0.1800000000	0.0000000000	1.0000000000	0.0000000000	1.0000000000	0.0000000000	0.0000000000	-67.3093179086	1.0000000000	551.5115129835	1.0000000000	0.0000000000	0.0000000000
0.1900000000	-0.0992645642	1.0000000000	0.2167395538	1.0000000000	0.0000000000	0.0000000000	-57.0914789550	1.0000000000	522.8874460058	1.0000000000	0.0000000000	0.0000000000
0.2000000000	0.2186587476	1.0000000000	0.4535660916	1.0000000000	0.0000000000	0.0000000000	-48.3637970686	1.0000000000	488.7460279560	1.0000000000	0.0000000000	0.0000000000
0.2100000000	0.0581649291	1.0000000000	0.4108041871	1.0000000000	0.0000000000	0.0000000000	-41.5310916996	1.0000000000	451.8783934330	1.0000000000	0.0000000000	0.0000000000
